HIERARCHY
ROOT Hips
{
	OFFSET 59.970299 -6.384315 92.725800
	CHANNELS 6 Xposition Yposition Zposition Xrotation Yrotation Zrotation
	JOINT spine
	{
		OFFSET 0.000000 -0.429886 7.475601
		CHANNELS 3 Xrotation Yrotation Zrotation
		JOINT spine1
		{
			OFFSET 0.000000 -0.000002 9.923012
			CHANNELS 3 Xrotation Yrotation Zrotation
			JOINT spine2
			{
				OFFSET 0.000000 -0.000001 9.508041
				CHANNELS 3 Xrotation Yrotation Zrotation
				JOINT Neck
				{
					OFFSET 0.000000 -1.163844 24.411095
					CHANNELS 3 Xrotation Yrotation Zrotation
					JOINT Head
					{
						OFFSET 0.000000 -0.000001 7.375229
						CHANNELS 3 Xrotation Yrotation Zrotation
						End Site
						{
							OFFSET 0.000000 5.887407 17.852203
						}
					}
				}
				JOINT RightShoulder
				{
					OFFSET -4.003559 0.557467 10.267906
					CHANNELS 3 Xrotation Yrotation Zrotation
					JOINT RightArm
					{
						OFFSET 0.000000 -0.000002 13.467300
						CHANNELS 3 Xrotation Yrotation Zrotation
						JOINT RightArmRoll
						{
							OFFSET 0.000000 -0.000001 6.798584
							CHANNELS 3 Xrotation Yrotation Zrotation
							JOINT RightForeArm
							{
								OFFSET 0.000000 -0.000003 19.801804
								CHANNELS 3 Xrotation Yrotation Zrotation
								JOINT RightForeArmRoll
								{
									OFFSET 0.000000 -0.000001 7.629044
									CHANNELS 3 Xrotation Yrotation Zrotation
									JOINT RightHand
									{
										OFFSET 0.000000 -0.000002 15.309799
										CHANNELS 3 Xrotation Yrotation Zrotation
										End Site
										{
											OFFSET 0.000000 0.000000 0.100006
										}
									}
								}
							}
						}
					}
				}
				JOINT LeftShoulder
				{
					OFFSET 4.003559 0.557467 10.267906
					CHANNELS 3 Xrotation Yrotation Zrotation
					JOINT LeftArm
					{
						OFFSET 0.000000 -0.000002 13.467300
						CHANNELS 3 Xrotation Yrotation Zrotation
						JOINT LeftArmRoll
						{
							OFFSET 0.000000 -0.000001 6.798584
							CHANNELS 3 Xrotation Yrotation Zrotation
							JOINT LeftForeArm
							{
								OFFSET 0.000000 -0.000003 19.801804
								CHANNELS 3 Xrotation Yrotation Zrotation
								JOINT LeftForeArmRoll
								{
									OFFSET 0.000000 -0.000001 7.629044
									CHANNELS 3 Xrotation Yrotation Zrotation
									JOINT LeftHand
									{
										OFFSET 0.000000 -0.000002 15.309799
										CHANNELS 3 Xrotation Yrotation Zrotation
										End Site
										{
											OFFSET 0.000000 0.000000 0.100006
										}
									}
								}
							}
						}
					}
				}
			}
		}
	}
	JOINT RightUpLeg
	{
		OFFSET -6.626091 1.019270 -1.215050
		CHANNELS 3 Xrotation Yrotation Zrotation
		JOINT RightUpLegRoll
		{
			OFFSET 0.000000 -0.000003 17.951698
			CHANNELS 3 Xrotation Yrotation Zrotation
			JOINT RightLeg
			{
				OFFSET 0.000000 0.000003 -22.230400
				CHANNELS 3 Xrotation Yrotation Zrotation
				JOINT RightLegRoll
				{
					OFFSET 0.000000 -0.000003 22.303200
					CHANNELS 3 Xrotation Yrotation Zrotation
					JOINT RightFoot
					{
						OFFSET 0.000000 -0.000003 18.563599
						CHANNELS 3 Xrotation Yrotation Zrotation
						JOINT RightToeBase
						{
							OFFSET 0.000000 -0.000002 15.518295
							CHANNELS 3 Xrotation Yrotation Zrotation
							End Site
							{
								OFFSET 0.006577 0.866261 7.515381
							}
						}
					}
				}
			}
		}
	}
	JOINT LeftUpLeg
	{
		OFFSET 6.626091 1.019270 -1.215050
		CHANNELS 3 Xrotation Yrotation Zrotation
		JOINT LeftUpLegRoll
		{
			OFFSET 0.000000 -0.000003 17.951797
			CHANNELS 3 Xrotation Yrotation Zrotation
			JOINT LeftLeg
			{
				OFFSET 0.000000 -0.000004 22.230293
				CHANNELS 3 Xrotation Yrotation Zrotation
				JOINT LeftLegRoll
				{
					OFFSET 0.000000 -0.000004 22.509308
					CHANNELS 3 Xrotation Yrotation Zrotation
					JOINT LeftFoot
					{
						OFFSET 0.000000 -0.000003 18.357498
						CHANNELS 3 Xrotation Yrotation Zrotation
						JOINT LeftToeBase
						{
							OFFSET 0.000000 -0.000002 15.518295
							CHANNELS 3 Xrotation Yrotation Zrotation
							End Site
							{
								OFFSET -0.029480 0.866261 7.515396
							}
						}
					}
				}
			}
		}
	}
}
MOTION
Frames: 8
Frame Time: 0.041667
58.817696 -7.021486 92.542297 -4.818341 -1.756754 0.414248 -1.718035 0.244317 -0.140017 0.567339 0.491680 -0.275132 2.212419 0.487961 -0.280951 19.572182 10.497384 -4.656403 8.940170 -11.688479 -2.444085 -15.193237 -5.496702 -15.884698 -153.511370 -168.893735 -69.169783 -0.000003 0.000001 0.000008 55.567103 -2.100221 2.917011 0.000003 0.000007 -3.007752 -5.000136 -8.000079 0.000013 -18.937770 27.543158 22.432069 -147.134583 188.192954 98.854489 0.000001 -0.000000 0.000001 38.309650 -4.401052 1.025164 0.000003 -0.000001 3.000010 -5.000174 8.000090 -0.000021 -9.128405 -171.578450 4.534106 -179.999991 0.000005 -1.079001 151.462423 -3.106410 -1.758978 -0.000007 -0.000001 0.440186 69.535731 6.915171 2.030706 30.327146 -7.088303 3.480978 -1.140117 -175.369915 4.698934 -0.000004 -0.000004 -1.133610 -10.916795 4.144253 0.640448 -0.000002 0.000002 -0.157118 72.027036 -7.011958 -1.569943 25.456959 7.355614 0.000000 
58.818596 -7.035303 92.548798 -4.825072 -1.752182 0.416501 -1.719196 0.243329 -0.141524 0.565021 0.489564 -0.278169 2.210099 0.485761 -0.283955 19.559903 10.505923 -4.641245 8.936720 -11.691849 -2.429360 -15.184344 -5.563569 -15.873541 -153.399656 -168.688105 -69.344069 -0.000002 0.000001 0.000008 55.287916 -1.995255 2.817180 0.000008 0.000007 -3.007739 -5.000135 -8.000078 0.000012 -18.929579 27.653602 22.419884 -147.136604 188.084422 99.016863 -0.000002 -0.000000 -0.000001 37.951106 -4.392034 1.034491 0.000002 -0.000003 3.000010 -5.000176 8.000088 -0.000022 -9.119110 -171.578231 4.539718 -179.999991 0.000005 -1.078004 151.460060 -3.111613 -1.759958 -0.000005 -0.000001 0.440242 69.536571 6.915170 2.030652 30.321412 -7.088558 3.479054 -1.131665 -175.373904 4.695255 -0.000004 -0.000005 -1.133950 -10.917712 4.145410 0.640466 -0.000002 0.000002 -0.157132 72.028873 -7.012256 -1.568973 25.456955 7.355614 -0.000000 
58.807495 -7.078526 92.560898 -4.831801 -1.747602 0.418768 -1.720355 0.242362 -0.143093 0.562712 0.487487 -0.281328 2.207798 0.483601 -0.287084 19.546774 10.513952 -4.625825 8.933658 -11.694911 -2.414457 -15.175217 -5.632456 -15.862170 -153.289102 -168.483350 -69.519182 -0.000001 0.000001 0.000008 55.000621 -1.888460 2.716146 0.000008 0.000007 -3.007740 -5.000136 -8.000078 0.000012 -18.921400 27.763782 22.407756 -147.137957 187.974934 99.178520 -0.000001 -0.000001 -0.000001 37.588857 -4.382629 1.043440 0.000003 -0.000002 3.000009 -5.000176 8.000087 -0.000021 -9.109901 -171.578013 4.545017 -179.999991 0.000005 -1.078004 151.457710 -3.116815 -1.760954 -0.000007 -0.000001 0.440296 69.537227 6.915231 2.030423 30.315870 -7.088780 3.477242 -1.123267 -175.378890 4.691540 -0.000004 -0.000004 -1.134290 -10.918731 4.146613 0.640489 -0.000002 0.000002 -0.157144 72.030799 -7.012521 -1.567994 25.456962 7.355615 0.000001 
58.813297 -7.068646 92.554298 -4.838604 -1.743030 0.420978 -1.721477 0.241435 -0.144711 0.560470 0.485480 -0.284586 2.205548 0.481515 -0.290311 19.532574 10.521196 -4.610119 8.931042 -11.697465 -2.399426 -15.165986 -5.703905 -15.850656 -153.179819 -168.280616 -69.694711 -0.000002 0.000001 0.000008 54.703600 -1.779206 2.613551 0.000007 0.000007 -3.007730 -5.000134 -8.000078 0.000013 -18.913482 27.872598 22.395890 -147.138066 187.864189 99.338592 0.000001 -0.000000 0.000001 37.222803 -4.372937 1.051915 0.000003 -0.000003 3.000010 -5.000176 8.000087 -0.000021 -9.100682 -171.578792 4.550166 -179.999991 0.000005 -1.078004 151.455333 -3.122030 -1.761955 -0.000006 -0.000001 0.440351 69.537869 6.915255 2.030289 30.310334 -7.089012 3.475549 -1.114765 -175.383876 4.687782 -0.000005 -0.000005 -1.134630 -10.919751 4.147866 0.640517 -0.000002 0.000002 -0.157157 72.032616 -7.012758 -1.567319 25.456959 7.355615 0.000000 
58.814598 -7.078476 92.554695 -4.845558 -1.738478 0.423059 -1.722534 0.240563 -0.146368 0.558351 0.483578 -0.287920 2.203428 0.479538 -0.293615 19.517187 10.527382 -4.594109 8.928944 -11.699609 -2.384292 -15.156550 -5.778446 -15.839226 -153.072148 -168.080847 -69.870267 -0.000003 0.000001 0.000008 54.394752 -1.666875 2.509065 0.000002 0.000008 -3.007730 -5.000133 -8.000078 0.000013 -18.905779 27.979163 22.384405 -147.136577 187.751860 99.496438 0.000000 -0.000000 -0.000002 36.852958 -4.363051 1.059839 0.000003 -0.000002 3.000011 -5.000175 8.000089 -0.000021 -9.091463 -171.578573 4.554856 -179.999991 0.000004 -1.078004 151.453216 -3.126364 -1.763446 -0.000007 -0.000001 0.440406 69.538422 6.915311 2.030163 30.304781 -7.089228 3.473975 -1.105996 -175.388849 4.684004 -0.000004 -0.000004 -1.134970 -10.920573 4.149160 0.640541 -0.000002 0.000002 -0.157168 72.034412 -7.012966 -1.566539 25.456957 7.355613 0.000000 
58.815998 -7.083059 92.558701 -4.852747 -1.733966 0.424938 -1.723516 0.239766 -0.148052 0.556408 0.481813 -0.291305 2.201487 0.477706 -0.296974 19.500499 10.532513 -4.577890 8.927457 -11.701135 -2.369104 -15.147044 -5.856640 -15.827944 -152.966239 -167.885189 -70.044457 -0.000002 0.000000 0.000008 54.072453 -1.550787 2.402378 0.000001 0.000007 -3.007720 -5.000134 -8.000079 0.000013 -18.898508 28.082791 22.373613 -147.132780 187.637577 99.651634 0.000000 0.000001 -0.000002 36.479518 -4.353053 1.067147 0.000004 -0.000003 3.000009 -5.000178 8.000085 -0.000019 -9.082124 -171.579352 4.559409 -179.999991 0.000005 -1.078003 151.450975 -3.130693 -1.763960 -0.000005 -0.000001 0.440462 69.538955 6.915333 2.029934 30.299139 -7.089449 3.472530 -1.096808 -175.393835 4.680209 -0.000004 -0.000005 -1.135290 -10.920994 4.150519 0.640555 -0.000002 0.000002 -0.157180 72.035970 -7.013091 -1.566060 25.456957 7.355615 -0.000000 
58.817795 -7.094759 92.561104 -4.860235 -1.729513 0.426545 -1.724365 0.239057 -0.149749 0.554699 0.480222 -0.294718 2.199775 0.476055 -0.300362 19.482093 10.536240 -4.561362 8.926668 -11.702249 -2.353848 -15.137579 -5.939023 -15.817057 -152.862106 -167.694791 -70.217937 -0.000001 0.000000 0.000008 53.734724 -1.430261 2.293220 0.000001 0.000008 -3.007720 -5.000135 -8.000078 0.000013 -18.891788 28.182274 22.363431 -147.126195 187.521027 99.803339 0.000001 0.000001 -0.000001 36.102386 -4.343048 1.073729 0.000002 -0.000003 3.000011 -5.000176 8.000088 -0.000021 -9.072640 -171.580117 4.563673 -179.999991 0.000006 -1.078003 151.448831 -3.135024 -1.765464 -0.000007 -0.000001 0.440517 69.539392 6.915350 2.029910 30.293296 -7.089675 3.471214 -1.087050 -175.398834 4.676416 -0.000005 -0.000005 -1.135610 -10.921112 4.151943 0.640574 -0.000002 0.000002 -0.157191 72.037288 -7.013160 -1.565788 25.456957 7.355615 -0.000000 
58.818295 -7.100037 92.558800 -4.868121 -1.725118 0.427810 -1.725088 0.238454 -0.151450 0.553282 0.478834 -0.298134 2.198355 0.474617 -0.303758 19.462055 10.538460 -4.544615 8.926635 -11.702745 -2.338609 -15.128181 -6.026138 -15.806624 -152.760145 -167.510581 -70.389286 -0.000001 0.000001 0.000007 53.379882 -1.304586 2.181370 -0.000001 0.000007 -3.007720 -5.000133 -8.000079 0.000012 -18.885596 28.276857 22.354224 -147.116237 187.401854 99.950905 -0.000002 -0.000001 -0.000003 35.721592 -4.333127 1.079525 0.000003 -0.000002 3.000011 -5.000175 8.000089 -0.000019 -9.062958 -171.580882 4.567647 -179.999991 0.000005 -1.078004 151.446741 -3.138482 -1.766493 -0.000007 -0.000001 0.440574 69.539823 6.915403 2.029693 30.287255 -7.089919 3.470046 -1.076560 -175.403807 4.672641 -0.000005 -0.000005 -1.135900 -10.920731 4.153421 0.640589 -0.000002 0.000002 -0.157201 72.038237 -7.013123 -1.565823 25.456959 7.355615 0.000001 
